<svg xmlns="http://www.w3.org/2000/svg" xmlns:xlink="http://www.w3.org/1999/xlink" viewBox="0 0 375 375"
    style="background-color:#d9e8ff" version="1.0">
    <g fill="#145da0" fill-opacity="1">
        <g fill="#599bff" fill-opacity="1">
            <path
                d="M 302.019531 205.1875 L 249.738281 152.902344 C 247.613281 150.8125 244.707031 149.503906 241.511719 149.503906 L 200.824219 149.503906 C 194.402344 149.503906 189.199219 154.707031 189.199219 161.128906 L 189.199219 201.816406 C 189.199219 205.042969 190.507812 207.949219 192.628906 210.039062 L 244.941406 262.351562 C 247.035156 264.445312 249.941406 265.753906 253.136719 265.753906 C 256.332031 265.753906 259.269531 264.445312 261.363281 262.351562 L 302.050781 221.664062 C 304.140625 219.542969 305.449219 216.636719 305.449219 213.441406 C 305.449219 210.214844 304.140625 207.308594 302.019531 205.1875 Z M 209.542969 178.566406 C 204.71875 178.566406 200.824219 174.671875 200.824219 169.847656 C 200.824219 165.023438 204.71875 161.128906 209.542969 161.128906 C 214.367188 161.128906 218.261719 165.023438 218.261719 169.847656 C 218.261719 174.671875 214.367188 178.566406 209.542969 178.566406 Z M 209.542969 178.566406 "
                fill-opacity="1" fill-rule="nonzero" />
        </g>
        <g fill="#ffbd59" fill-opacity="1">
            <g transform="translate(101.772954, 263.249983)">
                <path
                    d="M 86.359375 -142.140625 L 34.125 1.921875 L 0.953125 1.921875 L 53.203125 -142.140625 Z M 86.359375 -142.140625 " />
            </g>
        </g>
    </g>
</svg>